<?xml version="1.0" encoding="UTF-8" standalone="no"?>
<!-- Created with Inkscape (http://www.inkscape.org/) -->

<svg
   xmlns:dc="http://purl.org/dc/elements/1.1/"
   xmlns:cc="http://creativecommons.org/ns#"
   xmlns:rdf="http://www.w3.org/1999/02/22-rdf-syntax-ns#"
   xmlns:svg="http://www.w3.org/2000/svg"
   xmlns="http://www.w3.org/2000/svg"
   xmlns:sodipodi="http://sodipodi.sourceforge.net/DTD/sodipodi-0.dtd"
   xmlns:inkscape="http://www.inkscape.org/namespaces/inkscape"
   version="1.0"
   width="329.8667"
   height="270.54291"
   id="svg2"
   sodipodi:docname="logo.svg"
   inkscape:version="0.92.1 r15371">
  <metadata
     id="metadata3911">
    <rdf:RDF>
      <cc:Work
         rdf:about="">
        <dc:format>image/svg+xml</dc:format>
        <dc:type
           rdf:resource="http://purl.org/dc/dcmitype/StillImage" />
        <dc:title>generated by pstoedit version:3.44 from NVBadge_2D.eps</dc:title>
      </cc:Work>
    </rdf:RDF>
  </metadata>
  <sodipodi:namedview
     pagecolor="#ffffff"
     bordercolor="#666666"
     borderopacity="1"
     objecttolerance="10"
     gridtolerance="10"
     guidetolerance="10"
     inkscape:pageopacity="0"
     inkscape:pageshadow="2"
     inkscape:window-width="1920"
     inkscape:window-height="1003"
     id="namedview3909"
     showgrid="false"
     inkscape:zoom="1.0429825"
     inkscape:cx="-42.184491"
     inkscape:cy="254.55543"
     inkscape:window-x="-9"
     inkscape:window-y="-9"
     inkscape:window-maximized="1"
     inkscape:current-layer="svg2" />
  <defs
     id="defs24">
    <clipPath
       id="clippath1">
      <path
         d="M 0,332 V 792 H 480 V 332 Z"
         id="path9"
         inkscape:connector-curvature="0" />
    </clipPath>
  </defs>
  <title
     id="title4">generated by pstoedit version:3.44 from NVBadge_2D.eps</title>
  <path
     d="m 327.4137,250.597 c 0,3.77 -2.769,6.301 -6.047,6.301 v -0.023 c -3.371,0.023 -6.089,-2.508 -6.089,-6.278 0,-3.769 2.718,-6.293 6.089,-6.293 3.278,0 6.047,2.524 6.047,6.293 z m 2.453,0 c 0,-5.175 -4.019,-8.179 -8.5,-8.179 -4.511,0 -8.531,3.004 -8.531,8.179 0,5.172 4.02,8.188 8.531,8.188 4.481,0 8.5,-3.016 8.5,-8.188 m -9.91,0.692 h 0.91 l 2.11,3.703 h 2.316 l -2.336,-3.859 c 1.207,-0.086 2.2,-0.661 2.2,-2.286 0,-2.019 -1.391,-2.668 -3.75,-2.668 h -3.411 v 8.813 h 1.961 v -3.703 m 0,-1.492 v -2.122 h 1.364 c 0.742,0 1.753,0.059 1.753,0.965 0,0.985 -0.523,1.157 -1.398,1.157 h -1.719"
     style="fill:#000000;fill-opacity:1;fill-rule:nonzero;stroke-width:0;stroke-linecap:butt;stroke-linejoin:miter;stroke-miterlimit:10"
     id="path17"
     inkscape:connector-curvature="0" />
  <path
     d="m 25.4297,70.902 c 0,0 22.504,-33.203 67.437,-36.637 V 22.218 C 43.0977,26.215 0,68.367 0,68.367 c 0,0 24.4097,70.566 92.8667,77.027 V 132.59 C 42.6287,126.269 25.4297,70.902 25.4297,70.902 Z m 67.437,36.223 v 11.726 c -37.968,-6.769 -48.507,-46.238 -48.507,-46.238 0,0 18.23,-20.195 48.507,-23.469 v 12.867 c -0.023,0 -0.039,-0.007 -0.058,-0.007 -15.891,-1.907 -28.305,12.937 -28.305,12.937 0,0 6.957,24.992 28.363,32.184 M 92.8667,0 v 22.218 c 1.461,-0.113 2.922,-0.207 4.391,-0.257 56.582,-1.907 93.449,46.406 93.449,46.406 0,0 -42.343,51.488 -86.457,51.488 -4.043,0 -7.828,-0.375 -11.383,-1.004 v 13.739 c 3.04,0.386 6.192,0.613 9.481,0.613 41.051,0 70.738,-20.965 99.484,-45.778 4.766,3.817 24.278,13.102 28.289,17.168 -27.332,22.883 -91.031,41.329 -127.144,41.329 -3.481,0 -6.824,-0.211 -10.11,-0.528 v 19.305 h 156.032 V 0 Z m 0,49.144 V 34.265 c 1.446,-0.101 2.903,-0.179 4.391,-0.226 40.688,-1.278 67.383,34.965 67.383,34.965 0,0 -28.832,40.043 -59.746,40.043 -4.449,0 -8.438,-0.715 -12.028,-1.922 V 62.011 c 15.84,1.914 19.028,8.911 28.551,24.786 l 21.18,-17.86 c 0,0 -15.461,-20.277 -41.524,-20.277 -2.835,0 -5.546,0.199 -8.207,0.484"
     style="fill:#74b71b;fill-opacity:1;fill-rule:nonzero;stroke-width:0;stroke-linecap:butt;stroke-linejoin:miter;stroke-miterlimit:10"
     id="path21"
     inkscape:connector-curvature="0" />
  <g
     aria-label="J. E"
     transform="matrix(1.0160497,0,0,0.98420378,-56.7818,-31.512)"
     style="font-style:normal;font-variant:normal;font-weight:normal;font-stretch:normal;font-size:103.73254395px;line-height:1.25;font-family:Forte;-inkscape-font-specification:Forte;letter-spacing:0px;word-spacing:0px;fill:#000000;fill-opacity:1;stroke:none;stroke-width:2.59331346"
     id="text3939">
    <path
       d="m 128.39405,231.68658 c -0.64157,0.16884 -1.24938,0.33768 -1.82342,0.50651 -0.54027,0.13507 -0.96236,0.25325 -1.26627,0.35456 -0.30391,0.0675 -1.1312,0.3039 -2.48188,0.7091 -5.80794,1.72213 -9.65739,2.58319 -11.54835,2.58319 -1.82343,0 -3.30918,-0.33767 -4.45726,-1.01301 -1.11431,-0.70911 -1.67147,-1.67148 -1.67147,-2.88709 0,-1.99226 0.81041,-4.22089 2.43123,-6.68589 1.65459,-2.465 3.41048,-4.05205 5.26767,-4.76116 1.75589,-0.67534 3.86633,-1.16496 6.33133,-1.46887 2.465,-0.33767 5.63911,-0.50651 9.52232,-0.50651 7.6989,0 13.35489,0.43897 16.96797,1.31692 3.64685,0.87795 5.47028,2.24551 5.47028,4.1027 0,1.41822 -1.80424,4.68646 -3.05363,10.2918 -1.21561,5.60534 -1.28545,10.84641 -2.5686,15.23613 -5.06507,18.09917 -10.87301,33.12554 -17.42382,45.07909 -1.45199,2.6676 -3.00527,4.93 -4.65986,6.78719 -1.65459,1.85719 -3.37672,3.24164 -5.16637,4.15335 -1.75589,0.94548 -3.59619,1.41822 -5.52092,1.41822 -2.73514,0 -5.41963,-1.99226 -8.05346,-5.97678 -2.60007,-3.98452 -3.9001,-8.13787 -3.9001,-12.46006 0,-3.17411 0.54027,-6.24691 1.62082,-9.21842 1.11432,-3.00527 2.61696,-5.50404 4.50791,-7.4963 1.08055,-1.01301 2.21175,-1.89096 3.3936,-2.63383 1.21561,-0.74287 2.12732,-1.11431 2.73513,-1.11431 0.54027,0 0.96236,0.3039 1.26627,0.91171 0.33767,0.60781 0.5065,1.48575 0.5065,2.63383 0,0.54027 -0.13507,1.50264 -0.4052,2.88709 -1.18185,6.41575 -1.77277,11.91978 -1.77277,16.51211 0,2.49877 0.27014,4.67675 0.81041,6.53394 1.21561,-2.05979 2.19486,-4.17024 2.93773,-6.33134 1.92473,-6.14561 4.69133,-12.30557 5.94072,-17.50571 2.02603,-8.54307 2.33223,-15.11331 3.2777,-20.68488 2.83277,-18.51319 1.87408,-12.69643 2.78579,-21.27328 z"
       style="font-style:normal;font-variant:normal;font-weight:normal;font-stretch:normal;font-family:Forte;-inkscape-font-specification:Forte;fill:#000000;fill-opacity:1;stroke-width:2.59331346"
       id="path3948"
       inkscape:connector-curvature="0"
       sodipodi:nodetypes="ccccscscccscscccccscscccscscsccccc" />
    <path
       d="m 153.46613,289.27638 c -3.03904,0 -4.55856,-1.0299 -4.55856,-3.08969 0,-0.64157 0.16883,-1.62082 0.5065,-2.93774 0.33767,-1.31691 0.69223,-2.38058 1.06367,-3.19099 1.01301,-2.32993 1.94161,-3.84945 2.78578,-4.55856 0.97925,-0.87794 3.13897,-0.43686 5.06369,-1.11221 1.9585,-0.67534 2.97289,-2.23073 4.45864,-2.23073 2.09356,0 3.14034,1.21562 3.14034,3.64685 0,2.29616 -0.65846,5.09883 -1.97538,8.40801 -0.33767,0.94547 -0.74287,1.65458 -1.21561,2.12732 -0.43897,0.43897 -1.18185,0.86106 -2.22863,1.26627 -2.87021,1.11431 -5.21702,1.67147 -7.04044,1.67147 z"
       style="font-style:normal;font-variant:normal;font-weight:normal;font-stretch:normal;font-family:Forte;-inkscape-font-specification:Forte;stroke-width:2.59331346"
       id="path3950"
       inkscape:connector-curvature="0"
       sodipodi:nodetypes="ssccccsscscs" />
    <path
       d="m 230.35382,266.23033 -18.48749,-0.1013 v 1.26627 c 0,2.465 0.70911,4.71051 2.12733,6.73653 1.41821,1.99226 2.98838,2.98839 4.71051,2.98839 1.75589,0 4.28842,-0.64157 7.59759,-1.92472 3.34295,-1.28315 7.14175,-3.12346 11.3964,-5.52092 l 1.77278,-1.06367 c 1.21561,-0.67534 2.04291,-1.18185 2.48188,-1.51952 1.99226,-1.24938 3.24164,-1.87407 3.74815,-1.87407 0.60781,0 0.91171,0.55716 0.91171,1.67147 0,1.21561 -0.21949,2.60006 -0.65846,4.15335 -0.43897,1.55329 -0.99613,3.05592 -1.67147,4.50791 -0.67535,1.41822 -1.35069,2.43123 -2.02603,3.03904 -1.92473,1.72213 -5.21702,3.5962 -9.87688,5.62223 -4.65986,2.02602 -9.38725,3.61307 -14.18218,4.76116 -1.62082,0.33767 -3.10657,0.5065 -4.45726,0.5065 -4.62609,0 -8.86386,-0.92859 -12.71331,-2.78578 -3.81569,-1.89096 -6.78719,-4.47414 -8.91452,-7.74955 -2.09356,-3.27541 -1.96079,-6.92226 -1.96079,-10.94054 0,-3.30918 0.69223,-7.19957 2.07668,-11.18409 1.38445,-3.98452 3.09015,-6.49089 5.58891,-10.44164 2.49877,-3.98452 4.37468,-8.81532 7.51502,-12.05696 2.73514,-2.83644 5.79106,-5.40274 9.16777,-7.6989 3.37671,-2.32993 6.65212,-4.11959 9.82623,-5.36897 3.20787,-1.24938 6.14561,-1.87407 8.81321,-1.87407 4.18712,0 7.76643,1.19873 10.73794,3.59619 3.00527,2.3637 4.50791,5.2339 4.50791,8.61061 0,1.48575 -0.27014,3.10658 -0.81041,4.86247 -0.54027,1.75589 -1.26627,3.29229 -2.17798,4.60921 -0.94548,1.41821 -2.34681,2.80266 -4.204,4.15335 -1.85719,1.35069 -3.95075,2.51565 -6.28068,3.4949 -2.80267,1.11431 -5.20014,1.67147 -7.1924,1.67147 -1.99226,0 -2.98839,-0.48962 -2.98839,-1.46887 0,-0.57404 0.55716,-1.46887 1.67148,-2.68449 1.21561,-1.08055 2.38058,-2.5663 3.49489,-4.45725 1.08055,-1.99226 2.02603,-4.33908 2.83644,-7.04045 0.81041,-2.70137 1.21561,-4.81181 1.21561,-6.33133 0,-1.24938 -0.37144,-1.87407 -1.11431,-1.87407 -1.18185,0 -3.30917,1.30003 -6.38198,3.9001 -3.07281,2.60007 -5.50404,5.16637 -7.2937,7.6989 -1.68835,2.36369 -3.0728,4.77804 -4.15335,7.24304 -1.08055,2.43123 -1.80654,4.8287 -2.17798,7.19239 h 27.04745 c 2.97151,0 4.45726,0.75976 4.45726,2.27928 0,1.41822 -1.65459,3.73127 -4.96377,6.93914 -3.27541,2.97151 -6.28068,4.45726 -9.01581,4.45726 z"
       style="font-style:normal;font-variant:normal;font-weight:normal;font-stretch:normal;font-family:Forte;-inkscape-font-specification:Forte;stroke-width:2.59331346"
       id="path3952"
       inkscape:connector-curvature="0"
       sodipodi:nodetypes="ccscsccccsssccccsccssccccscsccccsscccssscccsscc" />
  </g>
</svg>
